<?xml version="1.0"?>
<svg xmlns="http://www.w3.org/2000/svg" id="regular" enable-background="new 0 0 36 36" height="512px" viewBox="0 0 36 36" width="512px" class=""><g><path d="m8.377 31.833c6.917 0 11.667 3.583 15 3.583s10.333-1.916 10.333-17.249-9.417-17.584-13.083-17.584c-17.167 0-24.5 31.25-12.25 31.25z" fill="#efefef" data-original="#EFEFEF" class=""/><g fill="#a4afc1"><path d="m31 27.5h2v1h-2z" data-original="#A4AFC1" class="active-path" style="fill:#2E5BA5" data-old_color="#A4AFC1"/><path d="m28.5 30h1v2h-1z" data-original="#A4AFC1" class="active-path" style="fill:#2E5BA5" data-old_color="#A4AFC1"/><path d="m3 7.5h2v1h-2z" data-original="#A4AFC1" class="active-path" style="fill:#2E5BA5" data-old_color="#A4AFC1"/><path d="m6.5 4h1v2h-1z" data-original="#A4AFC1" class="active-path" style="fill:#2E5BA5" data-old_color="#A4AFC1"/></g><path d="m19.25 10.75-5.5 7.5h4l-.927 7 5.427-8.5h-4z" fill="#2fdf84" data-original="#2FDF84" class="" style="fill:#148AAD" data-old_color="#2fdf84"/><path d="m19.25 10.75-5.5 7.5h2.25l2.588-3.529z" fill="#00b871" data-original="#00B871" class="" style="fill:#0E447A" data-old_color="#00b871"/><path d="m20 18.25h-2.25l-.927 7 2.839-4.446z" fill="#00b871" data-original="#00B871" class="" style="fill:#0E447A" data-old_color="#00b871"/><path d="m29.25 15h-5.25v-1.5h4.5v-4.5h1.5v5.25c0 .414-.336.75-.75.75z" data-original="#000000" class="" style="fill:#000000"/><path d="m7.5 27h-1.5v-5.25c0-.414.336-.75.75-.75h5.25v1.5h-4.5z" data-original="#000000" class="" style="fill:#000000"/><path d="m7.498 17.37-1.488-.192.096-.744c.766-5.948 5.879-10.434 11.894-10.434 5.005 0 9.783 3.068 11.621 7.46l.29.692-1.384.579-.289-.692c-1.611-3.85-5.821-6.539-10.238-6.539-5.263 0-9.736 3.923-10.406 9.125z" data-original="#000000" class="" style="fill:#000000"/><path d="m18 30c-5.005 0-9.783-3.068-11.621-7.46l-.29-.692 1.384-.579.289.692c1.611 3.85 5.821 6.539 10.238 6.539 5.263 0 9.736-3.923 10.406-9.125l.096-.744 1.488.192-.096.744c-.766 5.947-5.879 10.433-11.894 10.433z" data-original="#000000" class="" style="fill:#000000"/><path d="m16.82 26c-.086 0-.173-.015-.258-.045-.33-.121-.532-.455-.485-.803l.817-6.152h-3.144c-.28 0-.537-.156-.666-.405s-.108-.548.053-.777l1.5-2.13 1.227.863-.669.949h2.555c.216 0 .422.093.564.256s.207.378.179.593l-.484 3.647 2.927-4.582-2.485-.166c-.206-.014-.397-.112-.529-.272-.131-.159-.191-.366-.165-.571l.36-2.838-1.349 1.863-1.215-.88 3.07-4.24c.201-.278.563-.384.883-.257.319.126.512.452.469.792l-.63 4.96 2.955.197c.265.018.5.174.619.41.12.237.105.519-.037.742l-5.43 8.5c-.14.221-.382.346-.632.346z" data-original="#000000" class="" style="fill:#000000"/></g> </svg>
